<?xml version="1.0" standalone="no"?><!DOCTYPE svg PUBLIC "-//W3C//DTD SVG 1.1//EN" "http://www.w3.org/Graphics/SVG/1.1/DTD/svg11.dtd"><svg t="1666774954933" class="icon" viewBox="0 0 1024 1024" version="1.1" xmlns="http://www.w3.org/2000/svg" p-id="1020" xmlns:xlink="http://www.w3.org/1999/xlink" width="200" height="200"><path d="M801.473668 0.000346h-578.045116A153.441557 153.441557 0 0 0 69.710087 153.130382V909.6426a108.755554 108.755554 0 0 0 17.30674 59.431345 116.993562 116.993562 0 0 0 158.322058 38.870938l250.082393-151.98779a36.551835 36.551835 0 0 1 40.151636 0l243.194311 149.703301a109.863185 109.863185 0 0 0 59.639026 17.30674 116.058998 116.058998 0 0 0 115.851317-115.401343V153.338062A151.710883 151.710883 0 0 0 801.681349 0.208027z m78.018784 907.323151a39.320913 39.320913 0 0 1-39.009392 38.836325 35.617271 35.617271 0 0 1-19.48739-5.711225l-243.19431-149.7033a112.355356 112.355356 0 0 0-119.312665 0L208.406302 942.733087a35.824952 35.824952 0 0 1-51.608699-13.845392 42.020765 42.020765 0 0 1-5.745838-19.418162V152.957314a76.703472 76.703472 0 0 1 76.876539-76.565018h578.045116a76.703472 76.703472 0 0 1 76.841926 76.565018v754.227729z" p-id="1021"></path><path d="M667.277206 230.837644H358.698032a38.836325 38.836325 0 1 0 0 77.707263h308.579174a39.355527 39.355527 0 0 0 39.009392-38.836325 40.117023 40.117023 0 0 0-39.009392-38.870938z" p-id="1022"></path></svg>