<?xml version="1.0" standalone="no"?><!DOCTYPE svg PUBLIC "-//W3C//DTD SVG 1.1//EN" "http://www.w3.org/Graphics/SVG/1.1/DTD/svg11.dtd"><svg t="1667205592435" class="icon" viewBox="0 0 1024 1024" version="1.1" xmlns="http://www.w3.org/2000/svg" p-id="1215" xmlns:xlink="http://www.w3.org/1999/xlink" width="200" height="200"><path d="M420.7 696.5l246-178c4.4-3.2 4.4-9.7 0-12.9l-246-178c-5.3-3.8-12.7 0-12.7 6.5L408 381c0 10.2 4.9 19.9 13.2 25.9L566.6 512l-145.4 105.2c-8.3 6-13.2 15.6-13.2 25.9L408 690c0 6.5 7.4 10.30000001 12.7 6.5z" p-id="1216"></path><path d="M512 960C759.4 960 960 759.4 960 512s-200.6-448-448-448-448 200.6-448 448S264.6 960 512 960z m0-820c205.40000001 0 372.00000001 166.6 372 372s-166.6 372.00000001-372 372-372.00000001-166.6-372-372 166.6-372.00000001 372-372z" p-id="1217"></path></svg>